<?xml version="1.0" standalone="no"?>
<!DOCTYPE svg PUBLIC "-//W3C//DTD SVG 20010904//EN"
 "http://www.w3.org/TR/2001/REC-SVG-20010904/DTD/svg10.dtd">
<svg version="1.0" xmlns="http://www.w3.org/2000/svg"
 width="244.000000pt" height="48.000000pt" viewBox="0 0 244.000000 48.000000"
 preserveAspectRatio="xMidYMid meet">

<g transform="translate(0.000000,48.000000) scale(0.100000,-0.100000)"
fill="#000000" stroke="none">
<path d="M1107 433 c-18 -5 -18 -5 0 -18 25 -18 18 -22 -57 -34 -82 -14 -140
-14 -140 -1 0 6 5 10 12 10 8 0 6 6 -4 17 -10 9 -31 16 -50 15 -36 -1 -124
-30 -95 -31 9 -1 17 -5 17 -11 0 -16 -126 -12 -140 5 -6 8 -9 18 -6 24 12 19
-65 29 -93 12 -7 -5 -11 -14 -7 -19 9 -15 -69 -35 -101 -27 l-24 6 23 19 23
19 -68 1 c-62 0 -68 -2 -62 -19 4 -15 -1 -20 -26 -25 -17 -3 -47 -6 -67 -6
-29 0 -43 -8 -80 -47 -43 -44 -44 -47 -26 -61 11 -8 15 -16 8 -18 -6 -3 -9
-16 -6 -29 5 -31 42 -35 42 -5 0 22 20 70 29 70 17 -1 31 -19 36 -49 7 -39 22
-71 34 -71 5 0 8 -8 7 -17 -1 -13 7 -18 29 -19 17 0 39 -5 50 -10 14 -6 -8
-10 -80 -14 l-100 -5 -3 -32 -3 -33 1101 0 1101 0 -3 33 c-2 17 -9 33 -15 33
-7 1 -330 2 -718 3 -727 1 -744 2 -685 39 22 14 26 38 8 45 -8 3 0 16 22 35
28 24 33 33 23 43 -7 7 -13 17 -13 21 0 15 58 8 75 -8 14 -15 14 -18 0 -33
-23 -27 -18 -44 24 -84 46 -43 81 -49 81 -14 0 13 -6 32 -14 42 -12 17 -12 21
3 32 31 24 40 15 43 -44 l3 -58 40 -3 c24 -1 35 1 27 6 -9 6 -8 17 8 50 11 22
20 49 20 59 0 36 15 45 62 38 33 -5 49 -3 60 8 8 9 27 17 41 19 l27 3 -34 23
c-45 31 -161 72 -202 72 -39 0 -53 16 -23 25 54 17 -72 34 -134 18z m-314
-208 c20 -14 37 -32 37 -39 0 -8 12 -21 26 -31 14 -9 23 -22 20 -30 -3 -8 3
-16 12 -18 9 -3 -47 -5 -126 -6 l-143 -1 21 30 c12 17 25 30 30 30 6 0 13 12
16 27 7 27 40 62 59 63 6 0 27 -11 48 -25z m-270 -33 c-2 -12 2 -22 7 -22 6 0
10 -10 10 -23 0 -16 9 -27 28 -34 23 -9 15 -11 -54 -12 -67 -1 -83 2 -88 15
-4 10 3 23 20 36 14 11 30 32 35 45 12 31 45 27 42 -5z m1325 -113 c24 0 25
-1 7 -9 -16 -7 -12 -9 20 -9 29 -1 36 -4 28 -12 -9 -9 -37 -9 -113 0 -55 6
-124 11 -153 11 -29 0 -59 5 -67 10 -10 7 26 9 115 4 100 -4 127 -3 115 6 -13
10 -12 11 3 6 10 -3 31 -6 45 -7z m350 -16 c3 -21 -1 -23 -46 -23 -47 0 -49 1
-44 26 4 23 8 25 46 22 34 -2 42 -7 44 -25z m-1728 -3 c0 -17 -7 -20 -48 -20
-41 0 -48 3 -48 20 0 17 7 20 48 20 41 0 48 -3 48 -20z m223 13 c-7 -2 -21 -2
-30 0 -10 3 -4 5 12 5 17 0 24 -2 18 -5z m402 -7 c42 -11 59 -11 100 0 28 7
75 13 106 14 48 0 57 -3 62 -20 5 -18 0 -20 -45 -20 -28 0 -47 4 -43 9 11 19
-15 21 -84 4 -67 -16 -75 -16 -142 0 -69 17 -95 15 -84 -4 4 -5 -5 -9 -18 -9
-20 0 -24 4 -20 20 5 17 14 20 62 20 31 0 79 -6 106 -14z m-465 -6 c0 -5 -6
-10 -14 -10 -8 0 -18 5 -21 10 -3 6 3 10 14 10 12 0 21 -4 21 -10z m78 -17
c-10 -2 -26 -2 -35 0 -10 3 -2 5 17 5 19 0 27 -2 18 -5z m925 0 c-13 -2 -33
-2 -45 0 -13 2 -3 4 22 4 25 0 35 -2 23 -4z"/>
<path d="M2115 155 l-40 -12 40 -11 c29 -8 51 -9 79 -1 44 12 43 14 -4 26 -24
7 -48 6 -75 -2z"/>
</g>
</svg>
